<svg xmlns="http://www.w3.org/2000/svg" viewBox="0 0 32 32" width="32" height="32">
  <defs>
    <linearGradient id="bg" x1="0%" y1="0%" x2="100%" y2="100%">
      <stop offset="0%" stop-color="#6366f1"/>
      <stop offset="100%" stop-color="#4f46e5"/>
    </linearGradient>
    <linearGradient id="shine" x1="0%" y1="0%" x2="100%" y2="100%">
      <stop offset="0%" stop-color="#ffffff" stop-opacity="0.3"/>
      <stop offset="50%" stop-color="#ffffff" stop-opacity="0"/>
    </linearGradient>
  </defs>
  <!-- Background rounded square -->
  <rect x="2" y="2" width="28" height="28" rx="6" fill="url(#bg)"/>
  <!-- Shine overlay -->
  <rect x="2" y="2" width="28" height="14" rx="6" fill="url(#shine)"/>
  <!-- Note page -->
  <path d="M8 7h12a2 2 0 012 2v14a2 2 0 01-2 2H8a2 2 0 01-2 2V9a2 2 0 012-2z" fill="white" fill-opacity="0.95"/>
  <!-- Folded corner -->
  <path d="M18 7v4a2 2 0 002 2h4l-6-6z" fill="#e0e7ff"/>
  <!-- Text lines -->
  <line x1="9" y1="15" x2="17" y2="15" stroke="#6366f1" stroke-width="1.5" stroke-linecap="round"/>
  <line x1="9" y1="18" x2="15" y2="18" stroke="#6366f1" stroke-width="1.5" stroke-linecap="round"/>
  <line x1="9" y1="21" x2="13" y2="21" stroke="#6366f1" stroke-width="1.5" stroke-linecap="round"/>
</svg>
